<svg width="886" height="167" xmlns="http://www.w3.org/2000/svg" xmlns:svg="http://www.w3.org/2000/svg">
 <g>
  <title>Layer 1</title>
  <g id="svg_21"/>
  <g stroke="null" id="svg_23">
   <polygon stroke="null" id="svg_2" points="278.6024398803711,89.85760498046875 235.4953842163086,89.85760498046875 235.4953842163086,125.30560302734375 222.0984115600586,125.30560302734375 222.0984115600586,42.297584533691406 281.3283920288086,42.297584533691406 281.3283920288086,54.976600646972656 235.4953842163086,54.976600646972656 235.4953842163086,77.15461730957031 278.6024398803711,77.15461730957031 " fill="#0056A2"/>
   <path stroke="null" id="svg_3" d="m365.037406,92.583586c0,23.064 -15.588,34.2 -35.221,34.2c-19.623,0 -35.221,-11.136 -35.221,-34.2l0,-50.285l13.407,0l0,49.265c0,15.837 8.951,22.359 21.813,22.359c12.874,0 21.826,-6.522 21.826,-22.359l0,-49.266l13.395,0l0,50.286l0.001,0z" fill="#0056A2"/>
   <polygon stroke="null" id="svg_4" points="438.9033737182617,125.30654907226562 379.54842376708984,125.30654907226562 379.54842376708984,42.297584533691406 392.94441986083984,42.297584533691406 392.94441986083984,112.6265869140625 438.9033737182617,112.6265869140625 " fill="#0056A2"/>
   <path stroke="null" id="svg_5" d="m463.536406,89.895586l0,23.021l20.098,0c10.557,0 17.61,-2.022 17.61,-11.635c0,-9.363 -7.055,-11.386 -17.61,-11.386l-20.098,0zm0,-34.858l0,22.362l18.383,0c9.306,0 17.431,-1.433 17.431,-11.341c0,-9.543 -8.239,-11.021 -17.555,-11.021l-18.259,0zm18.791,-12.565c17.736,0 31.074,6.112 31.074,22.586c0,8.545 -5.511,15.658 -12.804,17.681c7.884,2.294 14.702,9.477 14.702,19.019c0,16.543 -12.158,23.725 -31.073,23.725l-34.088,0l0,-83.01l32.189,0l0,-0.001z" fill="#0056A2"/>
   <path stroke="null" id="svg_6" d="m544.821406,54.861586l0,23.362l20.396,0c10.794,0 15.838,-3.91 15.838,-11.908c0,-7.885 -5.341,-11.454 -15.838,-11.454l-20.396,0zm20.759,-12.564c19.087,0 29.404,8.543 29.404,24.019c0,14.11 -10.794,23.474 -27.688,24.064l27.338,34.927l-16.602,0l-26.449,-34.927l-6.763,0l0,34.927l-13.395,0l0,-83.01l34.155,0z" fill="#0056A2"/>
   <rect stroke="null" id="svg_7" height="83.01" width="13.396" fill="#0056A2" y="42.297586" x="611.204406"/>
   <path stroke="null" id="svg_8" d="m716.230406,54.158586l-9.839,9.545c-5.226,-6.228 -13.056,-10.09 -22.304,-10.09c-16.952,0 -29.405,12.271 -29.405,30.177c0,17.906 12.453,30.199 28.813,30.199c15.122,0 24.02,-7.84 26.153,-21.541l-22.007,0l0,-12.454l36.529,0c0.058,1.069 0.125,2.137 0.125,3.205c0,23.837 -15.122,43.584 -40.802,43.584c-21.404,0 -42.866,-15.294 -42.866,-42.993c0,-24.952 18.258,-43.039 43.458,-43.039c13.228,0 24.611,4.976 32.145,13.407" fill="#0056A2"/>
   <polygon stroke="null" id="svg_9" points="750.0263595581055,77.15461730957031 794.8481979370117,77.15461730957031 794.8481979370117,42.29859161376953 808.257438659668,42.29859161376953 808.257438659668,125.30758666992188 794.8481979370117,125.30758666992188 794.8481979370117,89.85659790039062 750.0263595581055,89.85659790039062 750.0263595581055,125.30758666992188 736.6314010620117,125.30758666992188 736.6314010620117,42.29859161376953 750.0263595581055,42.29859161376953 " fill="#0056A2"/>
   <polygon stroke="null" id="svg_10" points="818.9763717651367,42.297584533691406 818.9763717651367,54.976600646972656 845.8352584838867,54.976600646972656 845.8352584838867,125.30654907226562 859.242301940918,125.30654907226562 859.242301940918,54.976600646972656 886.1013717651367,54.976600646972656 886.1013717651367,42.297584533691406 " fill="#0056A2"/>
   <path stroke="null" id="svg_11" d="m8.154406,47.343586c-4.159,8.439 -6.899,17.679 -7.959,27.429c-0.147,1.361 0.966,2.573 2.343,2.573l36.444,0c1.327,0 2.429,-1.083 2.482,-2.403c0.367,-9.246 1.312,-18.453 2.808,-27.262c0.196,-1.155 -0.634,-2.171 -1.812,-2.171l-31.355,0c-1.267,0 -2.394,0.705 -2.951,1.834" fill="#0089CF"/>
   <path stroke="null" id="svg_12" d="m83.138406,0.795586c-7.645,0 -15.772,11.197 -21.459,29.354c-0.374,1.189 0.533,2.454 1.786,2.454l82.479,0c1.122,0 1.772,-1.342 1.048,-2.193c-15.314,-18.085 -38.209,-29.615 -63.854,-29.615" fill="#00B7F1"/>
   <path stroke="null" id="svg_13" d="m155.116406,45.508586l-95.265,0c-1.174,0 -2.19,0.799 -2.403,1.948c-1.536,8.333 -2.583,17.508 -2.99,27.308c-0.057,1.401 1.027,2.581 2.44,2.581l106.842,0c1.388,0 2.49,-1.223 2.339,-2.593c-1.06,-9.743 -3.8,-18.975 -7.957,-27.41c-0.556,-1.128 -1.74,-1.834 -3.006,-1.834" fill="#0089CF"/>
   <path stroke="null" id="svg_14" d="m39.192406,90.249586l-37.417,0c-0.968,0 -1.755,0.854 -1.659,1.813c3.27,32.81 25.707,59.993 56.073,70.282c0.969,0.327 1.825,-0.706 1.32,-1.591c-9.581,-16.752 -15.053,-42.461 -16.056,-68.328c-0.045,-1.196 -1.055,-2.176 -2.261,-2.176" fill="#0056A2"/>
   <path stroke="null" id="svg_15" d="m83.133406,166.795586c43.084,0 78.478,-32.446 82.96,-74.084c0.145,-1.347 -0.886,-2.461 -2.248,-2.461l-107.143,0c-1.283,0 -2.305,1.071 -2.252,2.347c1.737,43 15.902,74.184 28.683,74.198" fill="#0056A2"/>
   <path stroke="null" id="svg_16" d="m47.981406,30.652586c2.497,-9.019 5.692,-17.124 9.531,-23.818c0.507,-0.888 -0.354,-1.918 -1.325,-1.591c-14.505,4.92 -27.184,13.707 -36.857,25.112c-0.738,0.873 -0.074,2.246 1.073,2.246l25.048,0c1.185,0.001 2.213,-0.812 2.53,-1.949" fill="#00B7F1"/>
  </g>
 </g>
</svg>